<?xml version="1.0" encoding="UTF-8" standalone="no"?>
<!DOCTYPE svg PUBLIC "-//W3C//DTD SVG 1.1//EN"
 "http://www.w3.org/Graphics/SVG/1.1/DTD/svg11.dtd">
<!-- Generated by graphviz version 2.40.1 (20161225.0304)
 -->
<!-- Title: free Pages: 1 -->
<svg width="105pt" height="147pt"
 viewBox="0.00 0.00 105.00 147.00" xmlns="http://www.w3.org/2000/svg" xmlns:xlink="http://www.w3.org/1999/xlink">
<g id="graph0" class="graph" transform="scale(1 1) rotate(0) translate(4 143)">
<title>free</title>
<polygon fill="#ffffff" stroke="transparent" points="-4,4 -4,-143 101,-143 101,4 -4,4"/>
<!-- a -->
<g id="node1" class="node">
<title>a</title>
<ellipse fill="none" stroke="#000000" cx="22" cy="-117" rx="18" ry="18"/>
<ellipse fill="none" stroke="#000000" cx="22" cy="-117" rx="22" ry="22"/>
<text text-anchor="middle" x="22" y="-113.3" font-family="Times,serif" font-size="14.00" fill="#000000">a</text>
</g>
<!-- a&#45;&gt;a -->
<g id="edge1" class="edge">
<title>a&#45;&gt;a</title>
<path fill="none" stroke="#000000" d="M42.5808,-125.3702C52.8447,-126.5284 62,-123.7383 62,-117 62,-112.6833 58.2427,-109.9869 52.8436,-108.9109"/>
<polygon fill="#000000" stroke="#000000" points="52.6729,-105.405 42.5808,-108.6298 52.4812,-112.4024 52.6729,-105.405"/>
<text text-anchor="middle" x="79.5" y="-113.3" font-family="Times,serif" font-size="14.00" fill="#000000">0/C+1</text>
</g>
<!-- b -->
<g id="node2" class="node">
<title>b</title>
<ellipse fill="none" stroke="#000000" cx="22" cy="-22" rx="18" ry="18"/>
<ellipse fill="none" stroke="#000000" cx="22" cy="-22" rx="22" ry="22"/>
<text text-anchor="middle" x="22" y="-18.3" font-family="Times,serif" font-size="14.00" fill="#000000">b</text>
</g>
<!-- a&#45;&gt;b -->
<g id="edge2" class="edge">
<title>a&#45;&gt;b</title>
<path fill="none" stroke="#000000" d="M22,-94.9663C22,-82.9427 22,-67.8283 22,-54.4785"/>
<polygon fill="#000000" stroke="#000000" points="25.5001,-54.2433 22,-44.2433 18.5001,-54.2433 25.5001,-54.2433"/>
<text text-anchor="middle" x="37.5" y="-65.8" font-family="Times,serif" font-size="14.00" fill="#000000">1/C&#45;1</text>
</g>
<!-- b&#45;&gt;b -->
<g id="edge3" class="edge">
<title>b&#45;&gt;b</title>
<path fill="none" stroke="#000000" d="M42.5808,-30.3702C52.8447,-31.5284 62,-28.7383 62,-22 62,-17.6833 58.2427,-14.9869 52.8436,-13.9109"/>
<polygon fill="#000000" stroke="#000000" points="52.6729,-10.405 42.5808,-13.6298 52.4812,-17.4024 52.6729,-10.405"/>
<text text-anchor="middle" x="77.5" y="-18.3" font-family="Times,serif" font-size="14.00" fill="#000000">1/C&#45;1</text>
</g>
</g>
</svg>
