<?xml version="1.0" encoding="UTF-8" standalone="no"?>
<!DOCTYPE svg PUBLIC "-//W3C//DTD SVG 1.1//EN"
 "http://www.w3.org/Graphics/SVG/1.1/DTD/svg11.dtd">
<!-- Generated by graphviz version 2.40.1 (20161225.0304)
 -->
<!-- Title: Regular Pages: 1 -->
<svg width="188pt" height="78pt"
 viewBox="0.00 0.00 188.00 78.13" xmlns="http://www.w3.org/2000/svg" xmlns:xlink="http://www.w3.org/1999/xlink">
<g id="graph0" class="graph" transform="scale(1 1) rotate(0) translate(4 74.1314)">
<title>Regular</title>
<polygon fill="#ffffff" stroke="transparent" points="-4,4 -4,-74.1314 184,-74.1314 184,4 -4,4"/>
<!-- a -->
<g id="node1" class="node">
<title>a</title>
<ellipse fill="none" stroke="#000000" cx="18" cy="-19.1314" rx="18" ry="18"/>
<text text-anchor="middle" x="18" y="-15.4314" font-family="Times,serif" font-size="14.00" fill="#000000">a</text>
</g>
<!-- a&#45;&gt;a -->
<g id="edge1" class="edge">
<title>a:n&#45;&gt;a:n</title>
<path fill="none" stroke="#000000" d="M18,-37.1314C27,-43.1314 27,-55.1314 18,-55.1314 12.2344,-55.1314 10.1624,-50.2066 11.7839,-45.0894"/>
<polygon fill="#000000" stroke="#000000" points="14.6025,-47.1667 18,-37.1314 9.0859,-42.8576 14.6025,-47.1667"/>
<text text-anchor="middle" x="18" y="-58.9314" font-family="Times,serif" font-size="14.00" fill="#000000">0</text>
</g>
<!-- b -->
<g id="node2" class="node">
<title>b</title>
<ellipse fill="none" stroke="#000000" cx="90" cy="-19.1314" rx="18" ry="18"/>
<text text-anchor="middle" x="90" y="-15.4314" font-family="Times,serif" font-size="14.00" fill="#000000">b</text>
</g>
<!-- a&#45;&gt;b -->
<g id="edge2" class="edge">
<title>a&#45;&gt;b</title>
<path fill="none" stroke="#000000" d="M36.1686,-19.1314C43.869,-19.1314 53.0257,-19.1314 61.5834,-19.1314"/>
<polygon fill="#000000" stroke="#000000" points="61.5868,-22.6315 71.5867,-19.1314 61.5867,-15.6315 61.5868,-22.6315"/>
<text text-anchor="middle" x="54" y="-25.9314" font-family="Times,serif" font-size="14.00" fill="#000000">1</text>
</g>
<!-- c -->
<g id="node3" class="node">
<title>c</title>
<ellipse fill="none" stroke="#000000" cx="162" cy="-19.1314" rx="18" ry="18"/>
<text text-anchor="middle" x="162" y="-15.4314" font-family="Times,serif" font-size="14.00" fill="#000000">c</text>
</g>
<!-- b&#45;&gt;c -->
<g id="edge3" class="edge">
<title>b&#45;&gt;c</title>
<path fill="none" stroke="#000000" d="M108.1686,-19.1314C115.869,-19.1314 125.0257,-19.1314 133.5834,-19.1314"/>
<polygon fill="#000000" stroke="#000000" points="133.5868,-22.6315 143.5867,-19.1314 133.5867,-15.6315 133.5868,-22.6315"/>
<text text-anchor="middle" x="126" y="-25.9314" font-family="Times,serif" font-size="14.00" fill="#000000">0</text>
</g>
<!-- c&#45;&gt;b -->
<g id="edge5" class="edge">
<title>c&#45;&gt;b</title>
<path fill="none" stroke="#000000" d="M147.8141,-7.3729C140.4821,-2.6823 131.2557,1.1314 122.5,-1.1314 119.6313,-1.8727 116.7456,-2.9276 113.9415,-4.1596"/>
<polygon fill="#000000" stroke="#000000" points="112.1536,-1.1434 104.8647,-8.8326 115.3577,-7.3671 112.1536,-1.1434"/>
<text text-anchor="middle" x="126" y="-4.9314" font-family="Times,serif" font-size="14.00" fill="#000000">1</text>
</g>
<!-- c&#45;&gt;c -->
<g id="edge4" class="edge">
<title>c:n&#45;&gt;c:n</title>
<path fill="none" stroke="#000000" d="M162,-37.1314C171,-43.1314 171,-55.1314 162,-55.1314 156.2344,-55.1314 154.1624,-50.2066 155.7839,-45.0894"/>
<polygon fill="#000000" stroke="#000000" points="158.6025,-47.1667 162,-37.1314 153.0859,-42.8576 158.6025,-47.1667"/>
<text text-anchor="middle" x="162" y="-58.9314" font-family="Times,serif" font-size="14.00" fill="#000000">0</text>
</g>
</g>
</svg>
