<?xml version="1.0" encoding="UTF-8" standalone="no"?>
<!DOCTYPE svg PUBLIC "-//W3C//DTD SVG 1.1//EN"
 "http://www.w3.org/Graphics/SVG/1.1/DTD/svg11.dtd">
<!-- Generated by graphviz version 2.40.1 (20161225.0304)
 -->
<!-- Title: Regular Pages: 1 -->
<svg width="77pt" height="234pt"
 viewBox="0.00 0.00 77.00 234.00" xmlns="http://www.w3.org/2000/svg" xmlns:xlink="http://www.w3.org/1999/xlink">
<g id="graph0" class="graph" transform="scale(1 1) rotate(0) translate(4 230)">
<title>Regular</title>
<polygon fill="#ffffff" stroke="transparent" points="-4,4 -4,-230 73,-230 73,4 -4,4"/>
<!-- a -->
<g id="node1" class="node">
<title>a</title>
<ellipse fill="none" stroke="#000000" cx="22" cy="-208" rx="18" ry="18"/>
<text text-anchor="middle" x="22" y="-204.3" font-family="Times,serif" font-size="14.00" fill="#000000">a</text>
</g>
<!-- a&#45;&gt;a -->
<g id="edge1" class="edge">
<title>a&#45;&gt;a</title>
<path fill="none" stroke="#000000" d="M38.6641,-215.3828C48.625,-217.0234 58,-214.5625 58,-208 58,-203.7959 54.1525,-201.2751 48.7682,-200.4375"/>
<polygon fill="#000000" stroke="#000000" points="48.6002,-196.9399 38.6641,-200.6172 48.7247,-203.9388 48.6002,-196.9399"/>
<text text-anchor="middle" x="61.5" y="-204.3" font-family="Times,serif" font-size="14.00" fill="#000000">0</text>
</g>
<!-- b -->
<g id="node2" class="node">
<title>b</title>
<ellipse fill="none" stroke="#000000" cx="22" cy="-117" rx="18" ry="18"/>
<ellipse fill="none" stroke="#000000" cx="22" cy="-117" rx="22" ry="22"/>
<text text-anchor="middle" x="22" y="-113.3" font-family="Times,serif" font-size="14.00" fill="#000000">b</text>
</g>
<!-- a&#45;&gt;b -->
<g id="edge2" class="edge">
<title>a&#45;&gt;b</title>
<path fill="none" stroke="#000000" d="M22,-189.5848C22,-178.1105 22,-163.0231 22,-149.5774"/>
<polygon fill="#000000" stroke="#000000" points="25.5001,-149.2465 22,-139.2465 18.5001,-149.2466 25.5001,-149.2465"/>
<text text-anchor="middle" x="25.5" y="-160.8" font-family="Times,serif" font-size="14.00" fill="#000000">1</text>
</g>
<!-- c -->
<g id="node3" class="node">
<title>c</title>
<ellipse fill="none" stroke="#000000" cx="22" cy="-22" rx="18" ry="18"/>
<ellipse fill="none" stroke="#000000" cx="22" cy="-22" rx="22" ry="22"/>
<text text-anchor="middle" x="22" y="-18.3" font-family="Times,serif" font-size="14.00" fill="#000000">c</text>
</g>
<!-- b&#45;&gt;c -->
<g id="edge3" class="edge">
<title>b&#45;&gt;c</title>
<path fill="none" stroke="#000000" d="M13.9172,-96.4908C10.7854,-86.2003 8.3111,-73.5069 10,-62 10.4488,-58.9424 11.0808,-55.794 11.8226,-52.6699"/>
<polygon fill="#000000" stroke="#000000" points="15.2287,-53.4821 14.4761,-42.914 8.4741,-51.6449 15.2287,-53.4821"/>
<text text-anchor="middle" x="13.5" y="-65.8" font-family="Times,serif" font-size="14.00" fill="#000000">0</text>
</g>
<!-- c&#45;&gt;b -->
<g id="edge5" class="edge">
<title>c&#45;&gt;b</title>
<path fill="none" stroke="#000000" d="M22,-44.2433C22,-56.3026 22,-71.4246 22,-84.7537"/>
<polygon fill="#000000" stroke="#000000" points="18.5001,-84.9663 22,-94.9663 25.5001,-84.9663 18.5001,-84.9663"/>
<text text-anchor="middle" x="25.5" y="-65.8" font-family="Times,serif" font-size="14.00" fill="#000000">1</text>
</g>
<!-- c&#45;&gt;c -->
<g id="edge4" class="edge">
<title>c&#45;&gt;c</title>
<path fill="none" stroke="#000000" d="M42.5808,-30.3702C52.8447,-31.5284 62,-28.7383 62,-22 62,-17.6833 58.2427,-14.9869 52.8436,-13.9109"/>
<polygon fill="#000000" stroke="#000000" points="52.6729,-10.405 42.5808,-13.6298 52.4812,-17.4024 52.6729,-10.405"/>
<text text-anchor="middle" x="65.5" y="-18.3" font-family="Times,serif" font-size="14.00" fill="#000000">0</text>
</g>
</g>
</svg>
