<?xml version="1.0" encoding="UTF-8" standalone="no"?>
<!DOCTYPE svg PUBLIC "-//W3C//DTD SVG 1.1//EN"
 "http://www.w3.org/Graphics/SVG/1.1/DTD/svg11.dtd">
<!-- Generated by graphviz version 2.40.1 (20161225.0304)
 -->
<!-- Title: robot Pages: 1 -->
<svg width="548pt" height="245pt"
 viewBox="0.00 0.00 548.32 245.00" xmlns="http://www.w3.org/2000/svg" xmlns:xlink="http://www.w3.org/1999/xlink">
<g id="graph0" class="graph" transform="scale(1 1) rotate(0) translate(4 240.9965)">
<title>robot</title>
<polygon fill="#ffffff" stroke="transparent" points="-4,4 -4,-240.9965 544.3198,-240.9965 544.3198,4 -4,4"/>
<!-- north -->
<g id="node1" class="node">
<title>north</title>
<ellipse fill="none" stroke="#000000" cx="223.3198" cy="-214.9965" rx="18" ry="18"/>
<ellipse fill="none" stroke="#000000" cx="223.3198" cy="-214.9965" rx="22" ry="22"/>
<text text-anchor="middle" x="223.3198" y="-211.2965" font-family="Times,serif" font-size="14.00" fill="#000000">N</text>
</g>
<!-- north&#45;&gt;north -->
<g id="edge1" class="edge">
<title>north&#45;&gt;north</title>
<path fill="none" stroke="#000000" d="M243.9006,-223.3667C254.1645,-224.5249 263.3198,-221.7348 263.3198,-214.9965 263.3198,-210.6798 259.5625,-207.9835 254.1634,-206.9074"/>
<polygon fill="#000000" stroke="#000000" points="253.9927,-203.4016 243.9006,-206.6263 253.801,-210.3989 253.9927,-203.4016"/>
<text text-anchor="middle" x="328.3198" y="-211.2965" font-family="Times,serif" font-size="14.00" fill="#000000">0/X,Y+1,Fuel&#45;FuelCost</text>
</g>
<!-- east -->
<g id="node2" class="node">
<title>east</title>
<ellipse fill="none" stroke="#000000" cx="49.3198" cy="-118.4983" rx="18" ry="18"/>
<ellipse fill="none" stroke="#000000" cx="49.3198" cy="-118.4983" rx="22" ry="22"/>
<text text-anchor="middle" x="49.3198" y="-114.7983" font-family="Times,serif" font-size="14.00" fill="#000000">E</text>
</g>
<!-- north&#45;&gt;east -->
<g id="edge5" class="edge">
<title>north&#45;&gt;east</title>
<path fill="none" stroke="#000000" d="M201.1768,-214.1617C152.5186,-211.8143 38.7385,-203.3479 15.3198,-174.9965 6.2567,-164.0245 14.0129,-150.3859 24.3908,-139.2578"/>
<polygon fill="#000000" stroke="#000000" points="27.1006,-141.5042 31.8198,-132.0184 22.2152,-136.4908 27.1006,-141.5042"/>
<text text-anchor="middle" x="72.8198" y="-163.7965" font-family="Times,serif" font-size="14.00" fill="#000000">1/X,Y,Fuel&#45;FuelCost</text>
</g>
<!-- west -->
<g id="node4" class="node">
<title>west</title>
<ellipse fill="none" stroke="#000000" cx="340.3198" cy="-118.4983" rx="19.4968" ry="19.4968"/>
<ellipse fill="none" stroke="#000000" cx="340.3198" cy="-118.4983" rx="23.4965" ry="23.4965"/>
<text text-anchor="middle" x="340.3198" y="-114.7983" font-family="Times,serif" font-size="14.00" fill="#000000">W</text>
</g>
<!-- north&#45;&gt;west -->
<g id="edge9" class="edge">
<title>north&#45;&gt;west</title>
<path fill="none" stroke="#000000" d="M240.9953,-201.0379C250.6042,-193.4041 262.668,-183.7459 273.3198,-174.9965 287.0156,-163.7468 302.1195,-151.0373 314.5144,-140.5256"/>
<polygon fill="#000000" stroke="#000000" points="316.8722,-143.1151 322.2265,-133.9727 312.3396,-137.7807 316.8722,-143.1151"/>
<text text-anchor="middle" x="349.3198" y="-163.7965" font-family="Times,serif" font-size="14.00" fill="#000000">&#45;1/X,Y,Fuel&#45;FuelCost</text>
</g>
<!-- east&#45;&gt;north -->
<g id="edge12" class="edge">
<title>east&#45;&gt;north</title>
<path fill="none" stroke="#000000" d="M69.5603,-127.5196C86.3205,-135.3039 110.5101,-147.2747 130.3198,-159.9965 139.3726,-165.8103 140.3318,-169.0832 149.3198,-174.9965 163.5941,-184.3879 180.2778,-193.55 194.1869,-200.7309"/>
<polygon fill="#000000" stroke="#000000" points="192.8084,-203.9563 203.3093,-205.3642 195.9783,-197.7151 192.8084,-203.9563"/>
<text text-anchor="middle" x="209.3198" y="-163.7965" font-family="Times,serif" font-size="14.00" fill="#000000">&#45;1/X,Y,Fuel&#45;FuelCost</text>
</g>
<!-- east&#45;&gt;east -->
<g id="edge2" class="edge">
<title>east&#45;&gt;east</title>
<path fill="none" stroke="#000000" d="M69.9006,-127.2324C80.1645,-128.4409 89.3198,-125.5295 89.3198,-118.4983 89.3198,-113.9939 85.5625,-111.1803 80.1634,-110.0575"/>
<polygon fill="#000000" stroke="#000000" points="79.9966,-106.5514 69.9006,-109.7641 79.7965,-113.5485 79.9966,-106.5514"/>
<text text-anchor="middle" x="154.3198" y="-114.7983" font-family="Times,serif" font-size="14.00" fill="#000000">0/X+1,Y,Fuel&#45;FuelCost</text>
</g>
<!-- south -->
<g id="node3" class="node">
<title>south</title>
<ellipse fill="none" stroke="#000000" cx="217.3198" cy="-22" rx="18" ry="18"/>
<ellipse fill="none" stroke="#000000" cx="217.3198" cy="-22" rx="22" ry="22"/>
<text text-anchor="middle" x="217.3198" y="-18.3" font-family="Times,serif" font-size="14.00" fill="#000000">S</text>
</g>
<!-- east&#45;&gt;south -->
<g id="edge6" class="edge">
<title>east&#45;&gt;south</title>
<path fill="none" stroke="#000000" d="M30.0024,-107.3506C12.5506,-95.8781 -8.5715,-77.5375 4.3198,-62 26.8995,-34.7853 131.1549,-25.9704 184.9714,-23.2074"/>
<polygon fill="#000000" stroke="#000000" points="185.1997,-26.7006 195.0231,-22.7318 184.8688,-19.7084 185.1997,-26.7006"/>
<text text-anchor="middle" x="64.3198" y="-65.8" font-family="Times,serif" font-size="14.00" fill="#000000">&#45;1/X,Y,Fuel&#45;FuelCost</text>
</g>
<!-- south&#45;&gt;east -->
<g id="edge11" class="edge">
<title>south&#45;&gt;east</title>
<path fill="none" stroke="#000000" d="M197.3093,-31.6324C182.1062,-39.23 160.8882,-50.4414 143.3198,-62 134.3318,-67.9134 133.2787,-71.0425 124.3198,-77 109.7211,-86.7079 92.675,-96.2694 78.526,-103.7632"/>
<polygon fill="#000000" stroke="#000000" points="76.5065,-100.8691 69.2591,-108.5973 79.744,-107.0754 76.5065,-100.8691"/>
<text text-anchor="middle" x="203.3198" y="-65.8" font-family="Times,serif" font-size="14.00" fill="#000000">&#45;1/X,Y,Fuel&#45;FuelCost</text>
</g>
<!-- south&#45;&gt;south -->
<g id="edge3" class="edge">
<title>south&#45;&gt;south</title>
<path fill="none" stroke="#000000" d="M237.9006,-30.3702C248.1645,-31.5284 257.3198,-28.7383 257.3198,-22 257.3198,-17.6833 253.5625,-14.9869 248.1634,-13.9109"/>
<polygon fill="#000000" stroke="#000000" points="247.9927,-10.405 237.9006,-13.6298 247.801,-17.4024 247.9927,-10.405"/>
<text text-anchor="middle" x="320.8198" y="-18.3" font-family="Times,serif" font-size="14.00" fill="#000000">0/X,Y&#45;1,Fuel&#45;FuelCost</text>
</g>
<!-- south&#45;&gt;west -->
<g id="edge7" class="edge">
<title>south&#45;&gt;west</title>
<path fill="none" stroke="#000000" d="M239.6068,-23.2062C285.699,-26.2152 388.9876,-35.7933 410.3198,-62 425.4439,-80.58 397.3072,-97.1798 372.3253,-107.5009"/>
<polygon fill="#000000" stroke="#000000" points="371.0447,-104.2435 363.0019,-111.1402 373.5901,-110.7643 371.0447,-104.2435"/>
<text text-anchor="middle" x="474.3198" y="-65.8" font-family="Times,serif" font-size="14.00" fill="#000000">&#45;1/X,Y,Fuel&#45;FuelCost</text>
</g>
<!-- west&#45;&gt;north -->
<g id="edge8" class="edge">
<title>west&#45;&gt;north</title>
<path fill="none" stroke="#000000" d="M363.2984,-125.0275C391.8149,-134.2665 434.5869,-152.5553 416.3198,-174.9965 396.4459,-199.4117 305.4375,-209.3941 255.8167,-213.0779"/>
<polygon fill="#000000" stroke="#000000" points="255.3389,-209.6027 245.6068,-213.7903 255.8262,-216.5857 255.3389,-209.6027"/>
<text text-anchor="middle" x="480.3198" y="-163.7965" font-family="Times,serif" font-size="14.00" fill="#000000">&#45;1/X,Y,Fuel&#45;FuelCost</text>
</g>
<!-- west&#45;&gt;south -->
<g id="edge10" class="edge">
<title>west&#45;&gt;south</title>
<path fill="none" stroke="#000000" d="M321.2632,-103.9844C310.8953,-96.0551 297.8651,-86.0364 286.3198,-77 278.0502,-70.5275 258.8479,-55.2128 242.7948,-42.3832"/>
<polygon fill="#000000" stroke="#000000" points="244.7579,-39.4716 234.7617,-35.9607 240.3866,-44.9391 244.7579,-39.4716"/>
<text text-anchor="middle" x="346.3198" y="-65.8" font-family="Times,serif" font-size="14.00" fill="#000000">&#45;1/X,Y,Fuel&#45;FuelCost</text>
</g>
<!-- west&#45;&gt;west -->
<g id="edge4" class="edge">
<title>west&#45;&gt;west</title>
<path fill="none" stroke="#000000" d="M362.5207,-127.3203C372.8197,-128.2827 381.8181,-125.342 381.8181,-118.4983 381.8181,-114.114 378.1251,-111.3315 372.7631,-110.1509"/>
<polygon fill="#000000" stroke="#000000" points="372.6721,-106.643 362.5207,-109.6762 372.348,-113.6355 372.6721,-106.643"/>
<text text-anchor="middle" x="445.3181" y="-114.7983" font-family="Times,serif" font-size="14.00" fill="#000000">0/X&#45;1,Y,Fuel&#45;FuelCost</text>
</g>
</g>
</svg>
